<svg width="220" height="49" viewBox="0 0 220 49" fill="none" xmlns="http://www.w3.org/2000/svg">
<g clip-path="url(#clip0_636_158)">
<g clip-path="url(#clip1_636_158)">
<path d="M39.9625 16.5938H45.1949V21.8262L50.3745 11.5254L39.9625 16.5938Z" fill="white"/>
<path d="M43.7434 21.68L41.9349 24.2142C43.3278 26.4148 44.1355 29.0193 44.1355 31.811C44.1355 39.6595 37.7502 46.0448 29.9017 46.0448C27.7186 46.0448 25.6526 45.5532 23.8032 44.6695L44.4925 18.4551L21.5908 43.3584C21.3216 43.1653 21.0641 42.9663 20.8124 42.7556L44.2584 17.3782L19.08 41.0466C18.8869 40.8184 18.6996 40.5843 18.5182 40.3443L43.0937 17.1441L17.1779 38.1846C16.2122 36.265 15.6679 34.0995 15.6679 31.811C15.6679 23.9626 22.0532 17.5772 29.9017 17.5772C32.5647 17.5772 35.0579 18.3147 37.1942 19.5906L39.7694 17.7762C36.9776 15.8097 33.5713 14.6509 29.9075 14.6509C20.4437 14.6509 12.7474 22.3472 12.7474 31.811C12.7474 41.2749 20.4437 48.9712 29.9075 48.9712C39.3714 48.9712 47.0677 41.2749 47.0677 31.811C47.0677 28.0243 45.8328 24.5244 43.7492 21.68H43.7434Z" fill="#00AEEF"/>
<path d="M0.539551 47.1453H5.46168V29.1424C5.46168 25.7946 6.47421 23.2136 8.47583 21.4812C10.0385 20.1233 12.0577 19.3098 14.5041 19.0523V14.8032C10.4248 15.0666 7.11215 16.2664 4.65401 18.3792C1.88568 20.7554 0.539551 24.2729 0.539551 29.1424V47.1453Z" fill="white"/>
<path d="M66.4121 14.8852C63.9129 14.8852 61.6128 15.2832 59.5644 16.0733C57.5452 16.8518 55.8011 17.9579 54.3789 19.3567C52.9684 20.7497 51.8563 22.4645 51.0779 24.4544C50.2937 26.4736 49.8898 28.762 49.8898 31.2611C49.8898 33.7602 50.2878 36.0662 51.0779 38.1088C51.8563 40.128 52.9684 41.8663 54.3847 43.2826C55.8011 44.699 57.5393 45.811 59.5585 46.5894C61.607 47.3795 63.9071 47.7775 66.4062 47.7775C70.6436 47.7775 74.202 46.6889 76.9762 44.5468C79.2119 42.8203 80.7922 40.6372 81.7754 37.9098H76.426C75.554 39.5193 74.3542 40.8245 72.85 41.7902C71.0357 42.9666 68.8468 43.5577 66.3418 43.5577C62.8887 43.5577 60.0677 42.4457 57.9607 40.2568C55.8713 38.0854 54.8178 35.083 54.8178 31.3255C54.8178 27.5681 55.8772 24.5656 57.9607 22.3943C60.0677 20.2054 62.8829 19.0933 66.3418 19.0933C68.7824 19.0933 70.9362 19.6552 72.7447 20.7672C74.2547 21.6978 75.4604 22.962 76.3441 24.5305H81.6876C80.7044 21.8968 79.13 19.7723 76.9177 18.075C74.1435 15.9504 70.6084 14.8735 66.4121 14.8735V14.8852Z" fill="white"/>
<path d="M107.568 47.1451H113.204L101.697 31.2549L113.444 15.3824H107.767L89.1258 40.7012V1.25391H84.2037V47.1451H90.0037L98.8998 35.1002L107.562 47.1451H107.568Z" fill="white"/>
<path d="M127.38 14.8853C124.881 14.8853 122.581 15.2832 120.532 16.0734C118.513 16.8518 116.769 17.9579 115.347 19.3567C113.93 20.7497 112.824 22.4645 112.046 24.4544C111.261 26.4736 110.858 28.762 110.858 31.2612C110.858 33.7603 111.256 36.0662 112.046 38.1088C112.824 40.128 113.936 41.8663 115.352 43.2826C116.769 44.699 118.507 45.811 120.526 46.5894C122.575 47.3795 124.875 47.7775 127.374 47.7775C131.272 47.7775 134.602 46.8411 137.277 44.9858C139.278 43.5987 140.8 41.8721 141.889 39.7476H136.176C134.099 42.2818 131.12 43.5636 127.31 43.5636C124.36 43.5636 121.867 42.75 119.9 41.1522C117.928 39.5486 116.646 37.2836 116.096 34.4216L115.692 32.3088H143.808C143.82 31.981 143.826 31.6299 143.826 31.2612C143.826 28.7679 143.428 26.4736 142.638 24.4544C141.859 22.4645 140.753 20.7497 139.337 19.3567C137.915 17.9579 136.182 16.8518 134.181 16.0734C132.161 15.2891 129.867 14.8853 127.374 14.8853H127.38ZM138.915 28.0948H115.78L116.851 25.6133C117.746 23.5414 119.116 21.9202 120.93 20.7848C122.715 19.6669 124.863 19.0992 127.31 19.0992C129.756 19.0992 131.904 19.6611 133.712 20.7731C135.556 21.9085 136.943 23.5356 137.839 25.6074L138.915 28.089V28.0948Z" fill="white"/>
<path d="M182.073 47.1451H186.995V15.3766H182.073V47.1393V47.1451ZM184.531 0.475586C183.694 0.475586 183.044 0.744811 182.483 1.31838C181.909 1.90365 181.646 2.5533 181.646 3.36097C181.646 4.25644 181.909 4.93536 182.465 5.49136C183.027 6.05322 183.682 6.3166 184.531 6.3166C185.38 6.3166 186.035 6.05322 186.597 5.49722C187.159 4.93536 187.416 4.25644 187.416 3.36097C187.416 2.5533 187.147 1.90365 186.58 1.31252C186.024 0.738958 185.374 0.475586 184.531 0.475586Z" fill="#00AEEF"/>
<path d="M214.538 47.1453H219.46V27.8723C219.46 26.5203 219.197 25.0513 218.67 23.4944C218.161 21.9903 217.318 20.5622 216.165 19.2688C215.012 17.9753 213.508 16.8809 211.688 16.0205C209.885 15.1719 207.638 14.7446 204.992 14.7446C202.347 14.7446 200.099 15.1777 198.297 16.0264C196.476 16.8867 194.966 17.9753 193.819 19.2746C192.666 20.5739 191.823 21.9961 191.314 23.5003C190.788 25.0513 190.524 26.5203 190.524 27.8781V47.1511H195.446V28.0888C195.446 26.5554 195.716 25.2093 196.254 24.0797C196.781 22.9677 197.501 22.0079 198.39 21.2353C199.286 20.4569 200.339 19.8892 201.516 19.5322C203.716 18.8708 206.268 18.8708 208.469 19.5322C209.651 19.8892 210.698 20.4569 211.594 21.2353C212.484 22.0079 213.203 22.9618 213.73 24.0797C214.269 25.2093 214.538 26.5613 214.538 28.0888V47.1511V47.1453Z" fill="#00AEEF"/>
<path d="M151.528 34.3101V19.5495H159.535V15.3648H151.528V1.25977H146.606V33.9413C146.606 47.1626 160.635 47.3792 160.635 47.3792V43.3408C151.604 43.3408 151.528 34.3101 151.528 34.3101Z" fill="white"/>
<path d="M178.439 5.29814V1.25977C178.439 1.25977 164.41 1.48217 164.41 14.6976V47.3792H169.332V19.5437H177.257V15.359H169.332V14.3289C169.332 14.3289 169.408 5.29814 178.439 5.29814Z" fill="#00AEEF"/>
</g>
</g>
<defs>
<clipPath id="clip0_636_158">
<rect width="218.921" height="48.4956" fill="white" transform="translate(0.539551 0.475586)"/>
</clipPath>
<clipPath id="clip1_636_158">
<rect width="218.921" height="48.4956" fill="white" transform="translate(0.539551 0.475586)"/>
</clipPath>
</defs>
</svg>
